<svg width="14" height="13" viewBox="0 0 14 13" fill="none" xmlns="http://www.w3.org/2000/svg">
<path fill-rule="evenodd" clip-rule="evenodd" d="M3.55108 1.79267C3.55108 2.60245 2.93046 3.2504 1.93395 3.2504H1.91568C0.956216 3.2504 0.335938 2.60245 0.335938 1.79267C0.335938 0.965759 0.975107 0.335938 1.95278 0.335938C2.93046 0.335938 3.53253 0.965759 3.55108 1.79267ZM3.36312 4.39844V12.832H0.505208V4.39844H3.36312ZM13.6668 12.8347L13.6669 7.99918C13.6669 5.40875 12.257 4.20312 10.3763 4.20312C8.85898 4.20312 8.17963 5.02169 7.80032 5.59593V4.40139H4.94206C4.97973 5.19275 4.94206 12.835 4.94206 12.835H7.80032V8.12496C7.80032 7.87291 7.81886 7.62147 7.89443 7.44101C8.10098 6.93747 8.57127 6.41612 9.36083 6.41612C10.3954 6.41612 10.809 7.18946 10.809 8.32277V12.8347H13.6668Z" fill="white"/>
</svg>
