<svg width="38" height="38" viewBox="0 0 38 38" fill="none" xmlns="http://www.w3.org/2000/svg">
<path d="M18.0106 36.2589C18.1779 37.3986 19.8221 37.3986 19.9894 36.2589L21.9636 22.8078C22.0278 22.3709 22.3709 22.0278 22.8078 21.9636L36.2589 19.9894C37.3986 19.8221 37.3986 18.1779 36.2589 18.0106L22.8078 16.0364C22.3709 15.9722 22.0278 15.6291 21.9636 15.1922L19.9894 1.74112C19.8221 0.601402 18.1779 0.601398 18.0106 1.74111L16.0364 15.1922C15.9722 15.6291 15.6291 15.9722 15.1922 16.0364L1.74112 18.0106C0.601402 18.1779 0.601399 19.8221 1.74111 19.9894L15.1922 21.9636C15.6291 22.0278 15.9722 22.3709 16.0364 22.8078L18.0106 36.2589Z" fill="#101010"/>
</svg>
