<svg width="37" height="37" viewBox="0 0 37 37" fill="none" xmlns="http://www.w3.org/2000/svg">
<path d="M17.5106 1.74112C17.6779 0.601403 19.3221 0.601399 19.4894 1.74111L21.3996 14.7562C21.4638 15.1931 21.8069 15.5362 22.2438 15.6004L35.2589 17.5106C36.3986 17.6779 36.3986 19.3221 35.2589 19.4894L22.2438 21.3996C21.8069 21.4638 21.4638 21.8069 21.3996 22.2438L19.4894 35.2589C19.3221 36.3986 17.6779 36.3986 17.5106 35.2589L15.6004 22.2438C15.5362 21.8069 15.1931 21.4638 14.7562 21.3996L1.74112 19.4894C0.601403 19.3221 0.601399 17.6779 1.74111 17.5106L14.7562 15.6004C15.1931 15.5362 15.5362 15.1931 15.6004 14.7562L17.5106 1.74112Z" fill="#F4F4F4"/>
</svg>
