<svg width="16" height="10" viewBox="0 0 16 10" fill="none" xmlns="http://www.w3.org/2000/svg">
<path d="M14.4087 1.17574H10.6093V2.19887H14.4237L14.4087 1.17574ZM13.6068 8.21425C13.3186 8.39918 12.9782 8.49298 12.6326 8.48273C12.4038 8.50582 12.1726 8.48294 11.9534 8.41552C11.7342 8.3481 11.5317 8.23758 11.3586 8.0909C11.0387 7.73961 10.8721 7.28172 10.894 6.81381H15.855C15.8907 6.32659 15.8478 5.83695 15.7276 5.36257C15.6113 4.91125 15.4079 4.48531 15.1281 4.10725C14.8464 3.74052 14.4826 3.44034 14.0639 3.22925C13.5982 3.00687 13.0844 2.89495 12.5652 2.90272C12.0768 2.89925 11.5927 2.99054 11.1413 3.1712C10.728 3.3399 10.3536 3.58656 10.0397 3.89682C9.72677 4.21327 9.48444 4.58871 9.3278 4.99976C9.15971 5.44351 9.07593 5.91305 9.0805 6.38569C9.07279 6.86504 9.15401 7.34184 9.32031 7.79339C9.46155 8.2023 9.68577 8.57976 9.97977 8.90359C10.284 9.22153 10.6578 9.46947 11.0739 9.62921C11.5378 9.80037 12.0313 9.88411 12.5277 9.87592C13.2242 9.89695 13.9119 9.7204 14.5061 9.36799C15.1063 8.95502 15.5384 8.35179 15.7276 7.66278H14.0714C13.9828 7.89072 13.8196 8.08437 13.6068 8.21425ZM11.0364 5.2247C11.0947 5.04379 11.1916 4.87672 11.3206 4.73424C11.4497 4.59177 11.6082 4.47706 11.7858 4.39749C12.0211 4.29495 12.2773 4.24534 12.5352 4.25237C12.7215 4.23696 12.909 4.26076 13.085 4.32213C13.2609 4.3835 13.421 4.481 13.5544 4.60792C13.809 4.90973 13.9724 5.27389 14.0265 5.66007H10.9165C10.9286 5.51261 10.9563 5.36673 10.9989 5.2247H11.0364ZM7.07214 4.8764C7.45355 4.72262 7.78497 4.47191 8.03136 4.15078C8.25784 3.80975 8.37035 3.40944 8.35359 3.0043C8.36828 2.63485 8.29388 2.26716 8.13627 1.93039C8.00386 1.63863 7.79131 1.38764 7.52177 1.20477C7.23599 1.01464 6.91147 0.885977 6.57005 0.827446C6.16599 0.745388 5.75386 0.706456 5.34105 0.711347H0.867188V9.83964H5.43847C5.85565 9.83993 6.27116 9.78872 6.67496 9.68726C7.05771 9.59139 7.42032 9.43179 7.74659 9.21561C8.06264 9.00352 8.31998 8.71945 8.49598 8.3884C8.69075 8.01818 8.78611 7.60643 8.77325 7.19113C8.78745 6.67647 8.63837 6.16997 8.3461 5.73989C8.0318 5.30737 7.56563 5.00042 7.03467 4.8764H7.07214ZM2.943 2.27143H4.88392C5.06223 2.27122 5.24024 2.28578 5.41599 2.31497C5.57782 2.33819 5.73323 2.39246 5.87311 2.4746C6.00826 2.54863 6.11777 2.65971 6.18786 2.79387C6.27465 2.95476 6.31601 3.13499 6.30776 3.31632C6.32172 3.4725 6.29706 3.62966 6.23581 3.77477C6.17456 3.91988 6.07849 4.04878 5.95555 4.15078C5.68735 4.32931 5.36644 4.41845 5.04129 4.40475H2.943V2.27143ZM6.57005 7.67004C6.49305 7.81792 6.37663 7.94319 6.23282 8.03285C6.08317 8.12298 5.91828 8.18684 5.74572 8.22151C5.55392 8.26308 5.35772 8.28256 5.16119 8.27956H2.91302V5.77617H5.16119C5.54699 5.75981 5.92798 5.86412 6.24781 6.07368C6.3923 6.19923 6.50423 6.35596 6.57453 6.53119C6.64484 6.70642 6.67154 6.89521 6.65248 7.08229C6.67274 7.28175 6.64451 7.48303 6.57005 7.67004Z" fill="white"/>
</svg>
