<svg width="16" height="16" viewBox="0 0 16 16" fill="none" xmlns="http://www.w3.org/2000/svg">
<path d="M8 0.5C6.51664 0.5 5.06659 0.939867 3.83323 1.76398C2.59986 2.58809 1.63856 3.75943 1.07091 5.12987C0.50325 6.50032 0.354725 8.00832 0.644114 9.46317C0.933503 10.918 1.64781 12.2544 2.6967 13.3033C3.7456 14.3522 5.08197 15.0665 6.53683 15.3559C7.99168 15.6453 9.49968 15.4967 10.8701 14.9291C12.2406 14.3614 13.4119 13.4001 14.236 12.1668C15.0601 10.9334 15.5 9.48336 15.5 8C15.5 7.01508 15.306 6.03981 14.9291 5.12987C14.5522 4.21993 13.9997 3.39314 13.3033 2.6967C12.6069 2.00026 11.7801 1.44781 10.8701 1.0709C9.96019 0.693993 8.98492 0.5 8 0.5ZM8 2C9.54105 1.99938 11.0223 2.5962 12.1325 3.665C10.9865 4.33715 9.77216 4.88524 8.51 5.3C7.88187 4.21762 7.16171 3.19133 6.3575 2.2325C6.89147 2.07875 7.44434 2.00049 8 2ZM4.9175 2.8625C5.70326 3.76138 6.40848 4.7276 7.025 5.75C5.55283 6.11555 4.04188 6.3019 2.525 6.305H2.255C2.6804 4.86473 3.63045 3.63635 4.9175 2.8625ZM3.5 11.9825C2.52407 10.8866 1.98956 9.46745 2 8C2 7.925 2 7.85 2 7.7825H2.51C4.28553 7.76662 6.05105 7.51441 7.76 7.0325C8 7.49 8.225 7.9625 8.4425 8.45C7.27362 8.86206 6.18501 9.47361 5.225 10.2575L5 10.4375C4.46534 10.9177 3.96417 11.4339 3.5 11.9825ZM8 14C6.80457 14.0026 5.63615 13.6445 4.6475 12.9725C5.01263 12.5537 5.40338 12.1579 5.8175 11.7875L6.0575 11.585C6.94488 10.8387 7.96173 10.2616 9.0575 9.8825C9.5085 11.102 9.85966 12.3561 10.1075 13.6325C9.43235 13.879 8.71874 14.0034 8 14ZM11.4725 12.8825C11.2271 11.7474 10.9064 10.6299 10.5125 9.5375H10.7675C10.7971 9.53019 10.8279 9.53019 10.8575 9.5375H10.94H11.015H11.375C12.1643 9.53976 12.9476 9.67411 13.6925 9.935C13.2832 11.1278 12.5059 12.1598 11.4725 12.8825ZM11.375 8C11.2175 8 11.06 8 10.91 8C10.8129 7.98776 10.7146 7.98776 10.6175 8C10.4137 8.01252 10.2108 8.03756 10.01 8.075H9.935C9.7175 7.5725 9.4925 7.085 9.245 6.575C10.588 6.11379 11.8778 5.51036 13.0925 4.775C13.6951 5.74202 14.0099 6.86064 14 8C14 8.1275 14 8.255 14 8.3825C13.15 8.12016 12.2645 7.99113 11.375 8Z" fill="white"/>
</svg>
