<svg width="158" height="100" viewBox="0 0 158 100" fill="none" xmlns="http://www.w3.org/2000/svg">
<g clip-path="url(#clip0_6973_8009)">
<path fill-rule="evenodd" clip-rule="evenodd" d="M154.014 29.1557C155.958 23.6935 156.011 18.8365 154.145 14.7864C152.279 10.7362 148.553 7.61971 143.138 5.54797C137.712 3.47226 130.701 2.49441 122.531 2.68307C106.197 3.06025 85.5764 8.09177 64.5918 17.7591C43.6072 27.4265 26.3824 39.8299 15.4812 51.9997C10.0285 58.0868 6.2155 64.0512 4.26743 69.5239C2.32309 74.986 2.27066 79.843 4.13653 83.8932C6.0024 87.9434 9.72808 91.0598 15.1432 93.1316C20.5687 95.2073 27.5799 96.1851 35.75 95.9965C52.0839 95.6193 72.7048 90.5878 93.6894 80.9204C114.674 71.2531 131.899 58.8496 142.8 46.6799C148.253 40.5927 152.066 34.6283 154.014 29.1557ZM94.4168 82.4995C136.713 63.0144 164.161 32.3725 155.724 14.0589C147.287 -4.25468 106.16 -3.305 63.8643 16.1801C21.5687 35.6652 -5.87934 66.307 2.5575 84.6206C10.9943 102.934 52.1212 101.985 94.4168 82.4995Z" fill="#F4F4F4"/>
<path d="M154.145 14.7864C156.011 18.8365 155.958 23.6935 154.014 29.1557C152.066 34.6283 148.253 40.5927 142.8 46.6799C131.899 58.8496 114.674 71.2531 93.6894 80.9204C72.7048 90.5878 52.0839 95.6193 35.75 95.9965C27.5799 96.1851 20.5687 95.2073 15.1432 93.1316C9.72808 91.0598 6.0024 87.9434 4.13653 83.8932C2.27066 79.843 2.32309 74.986 4.26743 69.5239C6.2155 64.0512 10.0285 58.0868 15.4812 51.9997C26.3824 39.8299 43.6072 27.4265 64.5918 17.7591C85.5764 8.09177 106.197 3.06025 122.531 2.68307C130.701 2.49441 137.712 3.47226 143.138 5.54797C148.553 7.61971 152.279 10.7362 154.145 14.7864Z" fill="#F4F4F4"/>
</g>
<defs>
<clipPath id="clip0_6973_8009">
<rect width="158" height="99.0323" fill="white"/>
</clipPath>
</defs>
</svg>
